<?xml version="1.0" encoding="utf-8"?>
<!-- Generator: Adobe Illustrator 27.2.0, SVG Export Plug-In . SVG Version: 6.00 Build 0)  -->
<svg version="1.0" id="图层_1" xmlns="http://www.w3.org/2000/svg" xmlns:xlink="http://www.w3.org/1999/xlink" x="0px" y="0px"
	 viewBox="0 0 97.7 88.7" enable-background="new 0 0 97.7 88.7" xml:space="preserve">
<g>
	<g>
		<path fill-rule="evenodd" clip-rule="evenodd" fill="#030000" d="M0.1,83.9h0.5v2h2.4v-2h0.5v4.7H2.9v-2.2H0.5v2.2H0.1V83.9
			L0.1,83.9z M6.7,83.9l2.2,4.7H8.4l-0.7-1.5h-2L5,88.6H4.4l2.2-4.7H6.7L6.7,83.9z M6.7,84.9l-0.8,1.7h1.6L6.7,84.9L6.7,84.9z
			 M9.9,83.9h0.5v4.7H9.9V83.9L9.9,83.9z M11.8,88.6v-4.7h0.1l3.1,3.6v-3.6h0.5v4.7h-0.1l-3.1-3.5v3.5H11.8L11.8,88.6z M18.9,83.9
			l2.2,4.7h-0.5l-0.7-1.5h-2l-0.7,1.5h-0.5l2.2-4.7H18.9L18.9,83.9z M18.8,84.9L18,86.6h1.6L18.8,84.9L18.8,84.9z M22.1,88.6v-4.7
			h0.1l3.1,3.6v-3.6h0.5v4.7h-0.1l-3.1-3.5v3.5H22.1L22.1,88.6z M28.8,88.6v-4.7h0.1l3.1,3.6v-3.6h0.5v4.7h-0.1l-3.1-3.5v3.5H28.8
			L28.8,88.6z M36.1,83.8c0.7,0,1.3,0.2,1.8,0.7c0.5,0.5,0.7,1,0.7,1.7c0,0.7-0.2,1.3-0.7,1.7c-0.5,0.5-1.1,0.7-1.7,0.7
			c-0.7,0-1.3-0.2-1.7-0.7c-0.5-0.5-0.7-1-0.7-1.7c0-0.4,0.1-0.9,0.3-1.2c0.2-0.4,0.5-0.7,0.9-0.9C35.3,83.9,35.7,83.8,36.1,83.8
			L36.1,83.8z M36.1,84.3c-0.3,0-0.7,0.1-1,0.3c-0.3,0.2-0.5,0.4-0.7,0.7c-0.2,0.3-0.3,0.6-0.3,1c0,0.6,0.2,1,0.6,1.4
			c0.4,0.4,0.8,0.6,1.4,0.6c0.4,0,0.7-0.1,1-0.3c0.3-0.2,0.5-0.4,0.7-0.7c0.2-0.3,0.3-0.6,0.3-1c0-0.4-0.1-0.7-0.3-1
			s-0.4-0.5-0.7-0.7C36.8,84.4,36.5,84.3,36.1,84.3L36.1,84.3z M39.9,83.9h0.9c0.5,0,0.9,0,1.1,0.1c0.3,0.1,0.5,0.2,0.7,0.4
			c0.2,0.2,0.3,0.5,0.3,0.8c0,0.3-0.1,0.5-0.2,0.7c-0.1,0.2-0.3,0.3-0.5,0.4c-0.2,0.1-0.5,0.1-0.9,0.2l1.7,2.2h-0.6l-1.7-2.2h-0.3
			v2.2h-0.5V83.9L39.9,83.9z M40.4,84.4V86l0.8,0c0.3,0,0.5,0,0.7-0.1c0.1-0.1,0.3-0.2,0.3-0.3c0.1-0.1,0.1-0.3,0.1-0.4
			c0-0.2,0-0.3-0.1-0.4c-0.1-0.1-0.2-0.2-0.3-0.3c-0.1-0.1-0.4-0.1-0.7-0.1H40.4L40.4,84.4z M44,88.6l0.6-4.7h0.1l1.9,3.8l1.9-3.8
			h0.1l0.7,4.7h-0.5l-0.5-3.3l-1.6,3.3h-0.1l-1.7-3.4l-0.4,3.4H44L44,88.6z M52.4,83.9l2.2,4.7h-0.5l-0.7-1.5h-2l-0.7,1.5h-0.5
			l2.2-4.7H52.4L52.4,83.9z M52.3,84.9l-0.8,1.7h1.6L52.3,84.9L52.3,84.9z M55.7,83.9h0.5v4.2h1.8v0.5h-2.3V83.9L55.7,83.9z
			 M60.5,83.9H61v2.8c0,0.3,0,0.5,0,0.6c0,0.2,0.1,0.3,0.2,0.5c0.1,0.1,0.2,0.2,0.4,0.3c0.2,0.1,0.4,0.1,0.5,0.1
			c0.2,0,0.3,0,0.4-0.1c0.1-0.1,0.3-0.2,0.4-0.3c0.1-0.1,0.2-0.3,0.2-0.4c0-0.1,0-0.4,0-0.7v-2.8h0.5v2.8c0,0.4,0,0.8-0.1,1
			c-0.1,0.3-0.2,0.5-0.5,0.7c-0.2,0.2-0.5,0.3-0.9,0.3c-0.4,0-0.7-0.1-1-0.3c-0.3-0.2-0.4-0.4-0.5-0.7c-0.1-0.2-0.1-0.5-0.1-1V83.9
			L60.5,83.9z M65.1,88.6v-4.7h0.1l3.1,3.6v-3.6h0.5v4.7h-0.1l-3.1-3.5v3.5H65.1L65.1,88.6z M70.2,83.9h0.5v4.7h-0.5V83.9L70.2,83.9
			z M71.7,83.9h0.5l1.5,3.6l1.6-3.6h0.5l-2,4.7h-0.1L71.7,83.9L71.7,83.9z M77,83.9h2.7v0.5h-2.2v1.5h2.2v0.5h-2.2v1.8h2.2v0.5H77
			V83.9L77,83.9z M80.8,83.9h0.9c0.5,0,0.9,0,1.1,0.1c0.3,0.1,0.5,0.2,0.7,0.4c0.2,0.2,0.3,0.5,0.3,0.8c0,0.3-0.1,0.5-0.2,0.7
			c-0.1,0.2-0.3,0.3-0.5,0.4c-0.2,0.1-0.5,0.1-0.9,0.2l1.7,2.2h-0.6l-1.7-2.2h-0.3v2.2h-0.5V83.9L80.8,83.9z M81.3,84.4V86l0.8,0
			c0.3,0,0.5,0,0.7-0.1c0.1-0.1,0.3-0.2,0.3-0.3c0.1-0.1,0.1-0.3,0.1-0.4c0-0.2,0-0.3-0.1-0.4c-0.1-0.1-0.2-0.2-0.3-0.3
			c-0.1-0.1-0.4-0.1-0.7-0.1H81.3L81.3,84.4z M84.6,87.7l0.4-0.2c0.3,0.5,0.6,0.8,1,0.8c0.2,0,0.3,0,0.4-0.1
			c0.1-0.1,0.2-0.2,0.3-0.3c0.1-0.1,0.1-0.3,0.1-0.4c0-0.2-0.1-0.3-0.2-0.5c-0.1-0.2-0.4-0.5-0.8-0.7c-0.4-0.3-0.6-0.5-0.7-0.6
			c-0.2-0.2-0.2-0.5-0.2-0.7c0-0.2,0-0.4,0.1-0.6c0.1-0.2,0.2-0.3,0.4-0.4c0.2-0.1,0.4-0.1,0.6-0.1c0.2,0,0.4,0.1,0.6,0.2
			c0.2,0.1,0.4,0.3,0.6,0.6l-0.4,0.3c-0.2-0.2-0.3-0.4-0.5-0.5c-0.1-0.1-0.3-0.1-0.4-0.1c-0.2,0-0.3,0.1-0.5,0.2
			c-0.1,0.1-0.2,0.3-0.2,0.4c0,0.1,0,0.2,0.1,0.3c0,0.1,0.1,0.2,0.2,0.3c0.1,0.1,0.3,0.2,0.6,0.5c0.4,0.3,0.7,0.6,0.8,0.8
			c0.2,0.2,0.2,0.5,0.2,0.7c0,0.3-0.1,0.6-0.4,0.9c-0.3,0.2-0.6,0.4-0.9,0.4c-0.3,0-0.5-0.1-0.8-0.2C85,88.3,84.8,88.1,84.6,87.7
			L84.6,87.7z M88.6,83.9h0.5v4.7h-0.5V83.9L88.6,83.9z M90,84.4v-0.5h2.5v0.5h-1v4.2h-0.5v-4.2H90L90,84.4z M93.3,83.9h0.5l1.2,1.9
			l1.2-1.9h0.5l-1.5,2.4v2.2h-0.5v-2.2L93.3,83.9z"/>
		<g>
			<path fill-rule="evenodd" clip-rule="evenodd" fill="#030000" d="M23.2,76.1c-0.2-0.3,0.1-0.5,0.3-0.7
				C23.5,76,23.7,75.7,23.2,76.1L23.2,76.1z M26.5,72.3l0.1-0.5l-0.1-0.4l0.6-0.1l0.8-0.2c0.5,0,0.7-0.2,1.1,0.2
				c0.6,0.6,0.2,0.2,0.3,0.6c0,0,0,0.1,0,0.1c0.1,0.6-0.2-0.2,0.1,0.3l-0.2,0.6L29,73.4L28.9,74l0,0.1L28.7,75l-0.3,0.7
				c-0.2,0.3-0.7,0.9-0.8,1.3L26.9,77c-0.4-0.8-0.2-0.9-0.6-1.6l-0.6,0c-0.5,0.1-0.6,0.2-1.1-0.1l0.1-0.6l0.1-0.2l0.6-0.1l0.2-0.3
				c-0.1-0.6-0.4-0.8-0.8-1.1l1.4-0.5C26.6,72.3,26.3,72.6,26.5,72.3L26.5,72.3z M23.3,73.1c-0.3-0.1-0.1,0.1-0.4-0.2
				c-0.4-0.4-0.1-0.2-0.2-0.4c0.5-0.5,0.2-0.2,0.4-0.2l0.7,0.2C23.5,72.8,23.6,72.8,23.3,73.1L23.3,73.1z M22.2,67.7
				c-0.6,0.1-0.4,0.1-1,0.5c0.3,1.7,1,1.4,1.5,2.1c-1.2,1.4-4.2,1-3.7,3.9l-0.2,0.7c-0.2,1.4-0.5,2-0.2,2.4l0.2,0.3
				c0.3,0.3,0.2,0.2,0.4,0.3c0.3,0,0-0.2,0.5,0.2c0.5,0.2,0.1-0.2,0.6,0.5l0.5-0.4l0.1-0.6c0.2-0.3,0.2-0.1,0.1-0.4
				c0-0.2-0.1-0.2,0.2-0.5l0-0.5c0-0.2,0-0.4,0-0.7c-0.1-0.4,0-0.3-0.3-0.7L21,74c0,0-0.1-0.2,0-0.1c0,0,0-0.1,0-0.1
				c-0.4-1.7,0-0.9,0.3-1.5c0.8,1.1,1,2.4,1.4,2.6l0.6,0.2L23,75.2c-0.6,0.5-0.8,0.5-1,1.1l-0.1,1.2c0.5,0.2,0.8,0.5,1.3,0.2
				c0.7-0.3,0.1-0.1,0.5,0l0,0.4c0.1,0.6,0.2,1.6,1.2,0.5c0.8-0.9-0.2-1.1,0.6-1.7l0.6,0.1c0.5,1.3,0.8,1.8,1.9,2.4
				c0.6-1.2-0.1-0.6,1.3-3.1c0.2-0.3,0.4-0.8,0.5-1.1l1-4.4c-0.7-0.6-1.3-0.8-2.1-0.7l-0.6,0c-0.1-0.2,0.2-0.4-0.3,0l-0.6,0.2
				l-0.8,0c-0.7-0.3-0.5-0.1-1.1,0.2c0,0-0.3,0.7-0.5-0.3l0-0.3c0.1-0.4-0.6,0,0.4-0.4c0.2-0.1,0.3,0.1,0.4,0.1
				c0.7-0.1,0.9-0.2,1-0.9c0-0.5,0-0.5-0.4-1c-0.3-0.5,0-0.4-0.4-0.1l-0.6-0.1c-0.3-0.9,0.1-0.7-0.4-1.1c-0.1-0.1-1-0.5-1.2-0.6
				l-0.5,1.6C22.3,68,22.3,67.7,22.2,67.7z"/>
			<path fill-rule="evenodd" clip-rule="evenodd" fill="#030000" d="M76.1,67.8l0.3,0.9c-0.2,0.3-0.7,1.4-0.7,1.8
				c-0.1,1.4,0.2,1.3-1.4,1.7c-2,0.4-1.2-0.2-2.7-0.2c-0.3,0.7-0.2,0.3-0.2,0.9c0,0.5,0,0.4,0.1,0.8c0.4,0.2,0.4,0.2,0.8,0.3
				c0,0,0.3,0,0.4,0c0.2,0,0.3,0,0.5,0c0.6,0,0.2,0,0.7-0.1c0,0,0.1,0,0.1,0l0.6-0.2c0.4-0.1-0.2-0.4,0.5,0l0,0.4
				c-0.3,0.5-0.3,0.9-0.7,1.6c-0.2,0.4-0.2,0.4-0.5,0.7c-0.5,0.6-0.1-0.4-0.4,0.6c-0.3,0.1,0.2,0.2-0.6,0l-0.1,0.2
				c-0.3,0.5-0.2,0.2,0,0.7l1.3,0.5c1.4,0.1,1.6-1.2,2.7-2.6c0.7,0.3,0.8,0.2,1.5,0.5c0.8,0.4,0.6,0.7,1.1,1
				c0.7,0.5,2.5,0.5,1.9-0.8c-0.5-0.4-0.2,0-0.2-0.4c0-0.8-1.7-1.4-2.3-1.1l-0.8,0c-0.9-0.3-1.2,0.1-0.8-1.2
				c0.1-0.4,0.2-0.7,0.4-0.9c0.4-0.5,0.4-0.1,0.7-0.6l0.6-0.1l0.8-0.3l0.5-0.3c0.9-0.4,0.9-0.3,1.2-1.4c-1.3-1-0.6-0.2-1.8-0.7
				c-0.3,0.8,0,0.2-0.1,0.7c-0.1,0.4-0.1,0.1-0.5,0.5l-0.5,0.2c-0.6,0.2-0.3,0.2-0.9,0.1l0.1-0.7C78,70,78,70,78,69.5
				c-0.1-0.4-0.2,0.3,0-0.5c0-0.1,0.1-0.3,0.1-0.4c0.2-0.5,0.3-0.4,0-0.8c-0.3-0.5-1.2-0.8-1.8-0.9c-0.3-0.2-0.1-0.1-0.2,0.3
				C75.9,68.1,76,67.5,76.1,67.8z"/>
			<path fill-rule="evenodd" clip-rule="evenodd" fill="#030000" d="M61.5,74.7l-0.7-0.2c0.4-0.6,0-0.1,0.5-0.5
				c0.4-0.3-0.4-0.5,0.6-0.1C61.9,74.6,61.9,74.4,61.5,74.7L61.5,74.7z M60.1,65.8l-0.3-0.5c0,0,0.3-0.4-0.4-0.2
				c-0.5,0.1-0.2-0.1-0.3,0.5c-0.2,0.8,0.4,2.9,0.4,4.2c-0.5,0-0.3-0.2-0.6,0.3l0.3,0.4l-0.6,0.2c-0.3-0.2,0-0.2-0.3,0
				c-0.3,0.2,0.1,0-0.4,0.2c-0.2,0.1-0.1,0-0.3,0.1l-1,0.2c-1.1-0.6,0.5-0.2-0.7-0.5c-0.3,0-0.1-0.2-0.4,0.1
				c-0.3,0.4-0.1-0.1-0.2,0.5c0,0.7-0.1,0.3,0.3,0.8c0.3,0.3-0.1,0.1,0.5,0.3c0.4,0.1,0.3,0,0.6,0l0.7-0.4c0.9,0.1,1.4-0.4,1.9-0.5
				c1.2-0.3-0.1,0.3,0.9-0.1c0.4-0.1,0.4-0.3,0.9-0.7l0.5,0.2l-0.6,0.4c0,0-0.1,0-0.1,0.1c0,0-0.1,0.1-0.1,0.1L59,72.3
				c-0.9,0.5-2,1.1-1.7,2.8l0.2,0.6c-0.7,1.4-3.1,2.7-0.3,3.4c1.7-2,1.6-2.4,2.5-4.4l0.4-0.2l0.2,0.5c-0.2,0.4-0.3,0.9-0.4,1.4
				c0,0.2,0.1,1.1,0.2,1.3c0.8,2.2,6.3,1.1,7,0.7l0.5-0.2c0.2-0.2,0.4-0.1,0.3-0.8c-0.1-0.5-0.1-0.4-0.5-0.6L67,76.1
				c0.2-0.6,0.2-0.4,0.1-0.9c-0.9,0-0.4,0-0.9,2.5c-3.1,0.8-4.9,1.3-5.4-1.4c0.4-0.5,0.4-0.6,0.8-0.8c0.7,0.1,0.4-0.1,0.8,0.3
				c0.2,0.2,0.2,0.1,0.9,0.2c0-1.5-0.3-0.2-0.7-1.3c-0.1-0.3-0.1-0.5,0.1-0.8c0,0,0.2-0.3,0.3-0.3l0.2-0.2c0,0,0.1,0,0.1-0.1
				c0.1-0.5,0.2-0.1,0-0.4l-0.6,0c-0.7,0.1-0.4,0.1-1,0.4c-0.3,0-0.1-0.1-0.4,0.1c-0.2,0.1-0.3,0.2-0.5,0.4
				c-0.5,0.4-0.4,0.4-0.9,0.7l-0.3,0c-0.9-0.1-1-0.8-0.4-1.4c0.3-0.1,0.2-0.1,0.5-0.2l0.4-0.3c1.2-0.7,2.1-0.9,2.7-1.9
				c0.4-0.5,0.2-0.2,0.4-0.3c0.2,0,0.2,0.3,0.2-0.3l0.6-0.4c0.4-0.1,0.9-0.6,1.1-0.9c0.3-0.2,0.4-0.2,0.7-0.6c0,0-0.1-0.1-0.1-0.1
				c-1-0.7-0.7-0.1-0.9-1.1c0.2-0.7,0.2-0.2,0-0.7l-0.5-0.6c-1-0.9-0.5,0.8-1.4,2.7c-0.2,0.5-0.6,1-1,1.4c-0.5,0.5-0.7,0.6-1.5,0.6
				C60.5,69.1,60.6,66.8,60.1,65.8z"/>
			<path fill-rule="evenodd" clip-rule="evenodd" fill="#030000" d="M48.2,73.7l-0.5,0.8c-0.6,0.2-0.3,0.2-1,0.1
				c0-0.7-0.2-1.8,0.8-1.9C48.2,72.6,48.2,73.3,48.2,73.7L48.2,73.7z M39.8,70l-0.7,0l0.2,0.5c0.1,0.2,0.2,1.5-0.4,1.7
				c-0.6,0.1,0-0.9-0.5-1.7c-1.7-0.6-1,0.6-0.9,1.4c0.1,1.4-0.5,1.4-0.7,2.4l0.2,0.8c0.1,0.8,0.1,1.1,0.8,1.1c1.4,0,0.8-1.3,1.1-2.5
				c0.1-0.4,0-0.6,1-1c0.2,1.6-0.1,0.9-0.1,1.8c0,0.9,0.2,1.2,0.5,1.6l0.8-0.1c0.2-0.5,0.3-0.8,0.3-1.4l0.4-0.7c0.2-0.1,0.2,0,0-0.2
				l0.4-0.5c0.4-0.4,0.3-0.5,0.4-1.1c-1.1,0.2-0.5,0.3-0.9,0.5c-1.4,0.8-0.3-1.5-0.6-2.2l-0.7-0.4c-0.1-0.4,0.1,0-0.2-0.1L39.8,70
				L39.8,70z M44.4,73.1c-0.2,0.3,0.4,0.3-0.3,0.2C44,73,44,73.2,44,72.8c0-0.3,0-0.3,0.1-0.4C44.6,72.6,44.8,72.4,44.4,73.1
				L44.4,73.1z M42.8,69.3l0.7,0.5l0.5,0c0.2,0,0.5,0,0.9,0c-0.1,0.3-0.2,0.3-0.5,0.6l-1,0.3c0.2,0.6,0.2,1.2-0.1,1.7
				C43,72.9,43.3,72.5,43,73c-0.1,0.2-0.2,0.5-0.3,0.7c-0.2,0.6-0.1,1,0,1.9c0.2,0.1,0.3,0.1,0.5,0.2c0.9,0.1,0.6-0.1,1.3-0.3l0,0.9
				c-0.2,0.5,0.1,3.6,0.4,4.4c0.8-0.2,0.4,0.1,0.6-0.4c0.1-0.7-0.1-0.2,0.3-0.5c0,0,0-0.1,0-0.1c0,0,0-0.1,0-0.1l0.2-1.7
				c0.4-1.7,0.4-1.3,0.1-2.1c0.7,0.1,0.2,0.5,1.6,0.3c0.3-0.3,0.4-0.4,0.6-0.6c0.4-0.5,1.1-2.4,1-3.2c-0.2-0.9,0-0.2-0.2-0.4
				l-0.5-0.4l-0.4,0.1l-2,0.4L46.1,71c0.1-0.5,0.4-1.1,0.6-1.3l0.6-0.5c-0.2-0.7-0.1-0.3-0.5-0.8c-0.2-0.2-0.2-0.2-0.3-0.4
				c0,0-0.3-0.3-0.3-0.3c-0.8,0.1-1.3,0.5-2,0.3c0,0-2.2-1.6-1.8,0.5c0.1,0.4,0,0.2,0.1,0.4C42.7,69.3,42.7,69.2,42.8,69.3z"/>
			<path fill-rule="evenodd" clip-rule="evenodd" fill="#030000" d="M87.5,72.1l-0.7,0l-0.7,0.4l0.3,0.9c0,0.3-0.1,0.4,0.1,0.7
				c0.4,0.7,0.4,0.4,0.5,0.5l0.5,0c0.3,0.1,0,0.2,0.4-0.1c0.6-0.5,0.2-0.1,0.3-0.4l0.2-0.7c0.7-0.6,0.7-1.5,3.5-2.2l3.7-0.1l0.6,0.6
				c-0.4,0.6-0.5,0.7-1.2,0.8c-0.5-0.1-0.9,0.1-1.3,0.4L93,72.9c-0.9-0.2-1.3-0.1-2.3,0.6c0,0.7-0.2,0.7,0.2,1.5
				c0.9,0.3,0.7-0.2,1.6,0.1l-0.1,0.7c-1.8,0.8-2.2,0.2-3.1,0.5c-0.7-0.1-1.1-0.4-1.6,0.6c0.1,0.3,0.1,0.2,0.2,0.5
				c1.3-0.1,0.5-0.4,1.8,0.2l0.4-0.4l0.7-0.1l0.9,0.1l0.5,0.1c0.5,0,0.2-0.1,0.6,0.2c0.1,0.4,0.2,0.6-0.1,0.9
				c-0.3,0.3-1.5,0.4-1.9,0.3c-1-0.2-0.1-0.5-0.9-0.2c-0.6-0.1-0.7-0.1-1.3-0.2c-0.6,0.5-0.1,0-0.2,0.4c0.4,0.5,0.7,0.6,1.1,0.9
				l0.5,0.1l1,0.1l1,0.1l1.5-0.3c0.8-0.5,0.4-0.4,0.4-0.5l0.2-0.8c0,0,0-0.3,0-0.4c0-0.5,0-0.1,0.1-0.4c0.5-0.8,1.9,0,2.4-1
				c0.1-0.2,0.1-0.2,0-0.4c-0.3-0.9-0.1-0.2-0.2-0.2l-1.3-0.4c-0.2,0,0.1-0.1-0.5,0c-0.6,0.2-0.3,0.1-0.6,0.3l-0.7-0.4l0.2-0.5
				c0.6-0.2,0.3,0,0.2-0.3c0.2-1.2,0.5-1.5,1.3-1.4l0.6-0.1c0,0,0.6-0.3,0.7-0.3c0.4-0.2,0.8-0.8,1.1-1.2c-1.4-1.8-1.3-2-3.7-1.8
				c-4.8,0.4-1.2-0.1-5.4,1.2C87.9,71.5,87.8,71.3,87.5,72.1L87.5,72.1z M88.3,68.4c-0.9-0.7-0.9-0.7,0.3-1.6
				c0.8,0.4-0.1,0.2,1.5,0.7l1.6-1.2c0.3,0.1,0.6,0.2,0.9,0.3c1.1,0.5,0.4,0.8,1.5,0.6c0.3-0.1,0.5-0.2,0.8-0.2
				c1-0.2,2.5-0.2,2.7,1.1c-0.4,0.7-1.6,0.5-2.5,0.9c-0.4,0.2-0.9,0.5-1.4,0.6c-1.2,0.4-1,0.2-1.3-0.1c0.3-0.6,0.4-0.6,1-0.8l0.3,0
				l0.2,0c0.4-0.7-0.1-0.5-0.2-0.5c-0.2,0-0.2,0.1-0.5,0.1c-0.6,0.2-0.1,0.1-0.7,0.1l-0.4,0.1L92,68l-0.2-0.5l-0.6,0.1l-0.8,0.8
				l0,0.6c0,0.2,0,0.3-0.3,0.6c-0.2,0.2-0.3,0.2-0.6,0.2c-0.5,0-0.8-0.1-1.3-0.1c-0.6-0.8-0.2-0.2-0.2-0.5
				C88.2,69,88.3,68.8,88.3,68.4z"/>
			<path fill-rule="evenodd" clip-rule="evenodd" fill="#030000" d="M0.3,76.8c0.6,0.6,1.8,1.9,2.6,1.2c0.9-0.9-0.1-1.1-0.3-2
				c-0.1-0.4,0.1-0.2-0.1-0.7l-0.8,0.4c-0.7,0.2-0.3,0-0.8-0.1c-0.5,0,0-0.4-0.5,0.1C0,76.1,0,76.5,0.3,76.8L0.3,76.8z M0.2,74.6
				l0.3-0.1c0,0,0.1,0,0.2,0L1,74.4c0.5-0.5,0.9-0.5,1-1.1c0.1-0.6-0.3-0.9-0.8-1.2l-0.5-0.1c-0.3-0.1-0.3-0.5-0.7,0.2
				c-0.1,0.2-0.1,0.6,0,0.8l0,0.8C0,74.7,0,73.8,0.2,74.6L0.2,74.6z M3.3,70.5l0.1-1.3c-0.8-0.5-0.8-0.7-1.6-0.7l-0.8,0
				c-1.4,0.4-0.3,1.1,0.5,1.7C2.3,70.7,2.6,70.6,3.3,70.5L3.3,70.5z M10,76.1c0.3-0.3,0.2-0.3,0.4,0.1l-0.1,0.4
				c-0.6,0.6-0.1,0.3-0.6,0.9c-0.6,0.8-0.1-0.1-0.7,0.7l-0.6-0.1l-0.8,0.5c-0.6,0.2-0.7,0-1.2-0.2c0.4-1,0.6-1.1,1.1-1.3
				c0,0,0.1,0,0.1,0c1.4-0.4,0.3,0.3,2-0.8l0.2-0.1c0,0,0.1-0.1,0.1-0.1C9.9,76.1,10,76.1,10,76.1L10,76.1z M10.4,74.7
				c-0.4-0.3-0.5,0-0.3-0.4l0.5-0.3c-0.6-0.5-0.7-0.6-1.3,0l-0.2,0.3c-0.7,0.3-0.7,0.9-0.6,1.6c0.3-0.1,0.6-0.1,0.9-0.3l0.8-0.3
				L10.4,74.7L10.4,74.7z M9.7,72.2c0.2,0.1,0.1,0,0.3,0.2c0.5,0.4,0,0,0,0.2c-0.4,0.3-0.1,0.2-0.6,0.2C9.4,72.4,9.3,72.7,9.7,72.2
				L9.7,72.2z M7.3,74c-0.8,0.8-1.9,0.8-1.7,2.2c0.4,0.1,1.1,0.1,1.5-0.4c0.4-0.5,0-0.9,0.7-1.6l0-0.2L7.3,74L7.3,74z M7.1,72.9
				c0.2-0.4,0.2-0.2,0.6-0.8c0.3,0.4,0.3,0.4,0.5,0.8C7.3,73.4,7.6,73.1,7.1,72.9L7.1,72.9z M6.4,69.7c-0.5,0.1-0.1,0.2-0.7-0.1
				C5,69.2,5,68.4,5.3,67.8c0.2-0.6,0.3-0.9,0.5-1.4C6,65.6,6.2,65.6,6,65.1c1.1-1,1.2-0.9,2.2,0.2c-0.4,1.1-1.2,1.8-1.6,3l0.1,0.4
				c0.3,0,0.5,0,0.8,0l0.2-0.1c0,0,0.1,0,0.1-0.1c0.7-0.4,1.1-0.8,1.9,0.1c-0.3,0.9-0.7,1.1-1.3,1.9c3.4,0.8,1.7,0.8,2.8,1.3
				c0.8,0.3,1.2-0.8,1.9-0.1c1,1-1.3,1.2-1.7,1.5c0.3,1.1,0.9,0.9,0.2,1.7c-0.9,1-0.2,0.8-0.8,1.5c-0.2,0.3-0.1,0.1-0.2,0.4
				c0,0,0,0.2,0,0.1c0,0,0,0.1,0,0.2c-0.1,0.2-1,1.3-1.7,1.7c-1.7,1-2.8,0.4-3.3,0.3c-0.8-0.1-0.5,0.3-1.1-0.1
				c-0.7-0.4-0.5-1.7,0.6-1c0.5-0.6,0.3-0.2,0.4-0.9c-0.4-0.1-2.7,0.4-1.8-1.4c0.1-0.2,0,0,0.2-0.4c0.1-0.5,0.2-0.6,0.3-1
				C4,74,4.4,74.7,4,74.6c-0.8,0.3-1,0-1.8-0.3c0.1-0.4,0.2-0.6,0.3-1c0.3,0.1,0.5,0.2,0.9,0.3l0.7,0c0.6,0.2,0,0.3,0.6,0
				c1-1,0.9-1.1,1.6-1.9c0.6-0.8,0.8-1,0.7-1.9L6.4,69.7z"/>
		</g>
	</g>
	<g>
		<path fill-rule="evenodd" clip-rule="evenodd" fill="#009944" d="M48.8,3c7.1,0,13.5,2.9,18.2,7.5c4.6,4.6,7.5,11.1,7.5,18.2
			c0,7.1-2.9,13.5-7.5,18.2c-4.6,4.6-11.1,7.5-18.2,7.5c-7.1,0-13.5-2.9-18.2-7.5c-4.6-4.6-7.5-11.1-7.5-18.2
			c0-7.1,2.9-13.5,7.5-18.2C35.3,5.8,41.7,3,48.8,3L48.8,3z M66.7,10.8c-4.6-4.6-10.9-7.4-17.9-7.4c-7,0-13.3,2.8-17.9,7.4
			c-4.6,4.6-7.4,10.9-7.4,17.9c0,7,2.8,13.3,7.4,17.9c4.6,4.6,10.9,7.4,17.9,7.4c7,0,13.3-2.8,17.9-7.4c4.6-4.6,7.4-10.9,7.4-17.9
			C74.1,21.7,71.3,15.3,66.7,10.8z"/>
		<path fill-rule="evenodd" clip-rule="evenodd" fill="#009944" d="M48.8,0c2.6,0,3.7,1.5,5.5,1.9c1.7,0.4,3.4-0.6,5.5,0.3
			c2.4,1,2.9,2.8,4.3,3.8c1.4,1.1,3.3,0.7,5,2.4c1.8,1.8,1.6,3.7,2.5,5.2c0.9,1.5,2.8,2,3.7,4.1c1,2.4,0.1,4,0.3,5.8
			c0.3,1.8,1.8,2.9,1.8,5.2c0,2.6-1.5,3.7-1.9,5.5c-0.4,1.7,0.6,3.4-0.3,5.5c-1,2.4-2.8,2.9-3.8,4.3c-1.1,1.4-0.7,3.3-2.4,5
			c-1.8,1.8-3.7,1.6-5.2,2.5c-1.5,0.9-2,2.8-4.1,3.7c-2.4,1-4,0.1-5.8,0.3c-1.8,0.3-2.9,1.8-5.2,1.8c-2.6,0-3.7-1.5-5.5-1.9
			c-1.7-0.4-3.4,0.6-5.5-0.3c-2.4-1-2.9-2.8-4.3-3.8c-1.4-1.1-3.3-0.7-5-2.4c-1.8-1.8-1.6-3.7-2.5-5.2c-0.9-1.5-2.8-2-3.7-4.1
			c-1-2.4-0.1-4-0.3-5.8c-0.3-1.8-1.8-2.9-1.8-5.2c0-2.6,1.5-3.7,1.9-5.5c0.4-1.7-0.6-3.4,0.3-5.5c1-2.4,2.8-2.9,3.8-4.3
			c1.1-1.4,0.7-3.3,2.4-5c1.8-1.8,3.7-1.6,5.2-2.5c1.5-0.9,2-2.8,4.1-3.7c2.4-1,4-0.1,5.8-0.3C45.4,1.6,46.5,0,48.8,0L48.8,0z
			 M48.8,2C34.1,2,22.2,13.9,22.2,28.6c0,14.7,11.9,26.6,26.6,26.6c14.7,0,26.6-11.9,26.6-26.6C75.4,13.9,63.5,2,48.8,2z"/>
		<g>
			
				<polygon fill-rule="evenodd" clip-rule="evenodd" fill="#009944" stroke="#009944" stroke-width="0.1624" stroke-miterlimit="22.9256" points="
				25.7,31.7 25.7,31.4 27.1,31.4 27.1,29.7 25.7,29.7 25.7,29.4 29,29.4 29,29.7 27.4,29.7 27.4,31.4 29,31.4 29,31.7 			"/>
			
				<path fill-rule="evenodd" clip-rule="evenodd" fill="#009944" stroke="#009944" stroke-width="0.1624" stroke-miterlimit="22.9256" d="
				M25.7,26.7l3.4-1.3l0,0.4L28,26.2l-0.1,1.4l1,0.6l0,0.4L25.7,26.7L25.7,26.7L25.7,26.7z M26.4,26.8l1.2,0.7l0.1-1.1L26.4,26.8z"
				/>
			
				<rect x="27.4" y="22.7" transform="matrix(0.1142 -0.9935 0.9935 0.1142 0.2734 48.9545)" fill-rule="evenodd" clip-rule="evenodd" fill="#009944" stroke="#009944" stroke-width="0.1624" stroke-miterlimit="22.9256" width="0.3" height="3.3"/>
			
				<polygon fill-rule="evenodd" clip-rule="evenodd" fill="#009944" stroke="#009944" stroke-width="0.1624" stroke-miterlimit="22.9256" points="
				29.5,23.3 26.4,22.3 26.4,22.2 29.5,20.9 27.1,20.1 27.2,19.8 30.3,20.9 30.3,20.9 27.2,22.2 29.6,23 			"/>
			
				<path fill-rule="evenodd" clip-rule="evenodd" fill="#009944" stroke="#009944" stroke-width="0.1624" stroke-miterlimit="22.9256" d="
				M28.4,17.1l3.5,0.2l-0.2,0.3l-1.2-0.1l-0.6,1.2l0.7,0.9L30.4,20L28.4,17.1L28.4,17.1L28.4,17.1z M29,17.5l0.8,1l0.5-1L29,17.5z"
				/>
			
				<polygon fill-rule="evenodd" clip-rule="evenodd" fill="#009944" stroke="#009944" stroke-width="0.1627" stroke-miterlimit="22.9256" points="
				32.6,17 30,15 30,14.9 33.3,14.8 31.4,13.2 31.6,12.9 34.2,15 34.1,15 30.8,15.2 32.8,16.8 			"/>
			
				<polygon fill-rule="evenodd" clip-rule="evenodd" fill="#009944" stroke="#009944" stroke-width="0.1624" stroke-miterlimit="22.9256" points="
				36.4,13.3 34.5,10.7 34.5,10.6 37.8,11.3 36.3,9.3 36.6,9.1 38.5,11.8 38.5,11.8 35.2,11.1 36.7,13.1 			"/>
			
				<path fill-rule="evenodd" clip-rule="evenodd" fill="#009944" stroke="#009944" stroke-width="0.1624" stroke-miterlimit="22.9256" d="
				M39.4,7.4c0.5-0.2,0.9-0.2,1.3-0.1c0.4,0.2,0.8,0.5,1,0.9c0.2,0.4,0.2,0.9,0.1,1.3c-0.2,0.4-0.5,0.8-0.9,1
				c-0.4,0.2-0.9,0.2-1.3,0.1c-0.4-0.2-0.8-0.5-1-0.9c-0.1-0.3-0.2-0.6-0.2-0.9c0-0.3,0.1-0.6,0.3-0.8C38.9,7.7,39.1,7.6,39.4,7.4
				L39.4,7.4z M39.5,7.7C39.3,7.8,39.1,8,39,8.2c-0.1,0.2-0.2,0.4-0.2,0.7c0,0.2,0,0.5,0.1,0.7c0.2,0.4,0.4,0.6,0.8,0.7
				c0.4,0.1,0.7,0.1,1.1-0.1c0.2-0.1,0.4-0.3,0.6-0.5c0.1-0.2,0.2-0.4,0.2-0.7c0-0.2,0-0.5-0.1-0.7c-0.1-0.2-0.3-0.4-0.5-0.6
				c-0.2-0.1-0.4-0.2-0.7-0.2C40,7.6,39.7,7.6,39.5,7.7z"/>
			
				<path fill-rule="evenodd" clip-rule="evenodd" fill="#009944" stroke="#009944" stroke-width="0.1624" stroke-miterlimit="22.9256" d="
				M42.3,6.6l0.6-0.1c0.3-0.1,0.6-0.1,0.7-0.1c0.2,0,0.4,0,0.5,0.2c0.1,0.1,0.2,0.3,0.3,0.4c0,0.2,0,0.3,0,0.5
				c0,0.1-0.1,0.3-0.3,0.4C44,7.9,43.8,7.9,43.5,8l1.4,1.1l-0.4,0.1l-1.4-1.1l-0.2,0l0.3,1.4L43,9.6L42.3,6.6L42.3,6.6z M42.7,6.8
				l0.3,1l0.5-0.1c0.2,0,0.3-0.1,0.4-0.2C43.9,7.5,44,7.4,44,7.3c0-0.1,0-0.2,0-0.3c0-0.1-0.1-0.2-0.1-0.3c-0.1-0.1-0.2-0.1-0.3-0.1
				c-0.1,0-0.2,0-0.5,0.1L42.7,6.8z"/>
			
				<polygon fill-rule="evenodd" clip-rule="evenodd" fill="#009944" stroke="#009944" stroke-width="0.1624" stroke-miterlimit="22.9256" points="
				45.7,8.8 45.8,5.6 45.9,5.6 47.3,8.1 48.2,5.4 48.3,5.4 49,8.4 48.7,8.5 48.2,6.3 47.4,8.6 47.3,8.6 46,6.5 45.9,8.7 			"/>
			
				<path fill-rule="evenodd" clip-rule="evenodd" fill="#009944" stroke="#009944" stroke-width="0.1624" stroke-miterlimit="22.9256" d="
				M51.3,5.6l1.2,3.2l-0.4,0l-0.4-1.1l-1.4-0.1l-0.6,0.9l-0.4,0L51.3,5.6L51.3,5.6L51.3,5.6z M51.2,6.2l-0.7,1l1.1,0.1L51.2,6.2z"/>
			
				<polygon fill-rule="evenodd" clip-rule="evenodd" fill="#009944" stroke="#009944" stroke-width="0.1627" stroke-miterlimit="22.9256" points="
				54,6.2 54.3,6.2 53.8,8.9 55,9.1 54.9,9.4 53.5,9.2 			"/>
			
				<path fill-rule="evenodd" clip-rule="evenodd" fill="#009944" stroke="#009944" stroke-width="0.1624" stroke-miterlimit="22.9256" d="
				M58.6,7.4l0.3,0.2l-1,1.7c-0.1,0.2-0.2,0.3-0.2,0.4c-0.1,0.1-0.1,0.2-0.1,0.3c0,0.1,0.1,0.2,0.1,0.3c0.1,0.1,0.2,0.2,0.3,0.3
				c0.1,0.1,0.2,0.1,0.3,0.1c0.1,0,0.2,0,0.3,0c0.1,0,0.2-0.1,0.3-0.2c0.1-0.1,0.2-0.2,0.3-0.4l1-1.7l0.3,0.2l-1,1.7
				c-0.1,0.3-0.3,0.4-0.4,0.6c-0.1,0.1-0.3,0.2-0.5,0.2c-0.2,0-0.4,0-0.6-0.1c-0.2-0.1-0.4-0.3-0.5-0.5c-0.1-0.2-0.1-0.4-0.1-0.6
				c0-0.1,0.1-0.3,0.3-0.6L58.6,7.4z"/>
			
				<polygon fill-rule="evenodd" clip-rule="evenodd" fill="#009944" stroke="#009944" stroke-width="0.1624" stroke-miterlimit="22.9256" points="
				59.8,12 61.9,9.4 61.9,9.5 62.1,12.8 63.6,10.8 63.9,11 61.9,13.6 61.8,13.6 61.6,10.3 60.1,12.2 			"/>
			
				<rect x="62.1" y="12.9" transform="matrix(0.6736 -0.7391 0.7391 0.6736 11.1484 51.3797)" fill-rule="evenodd" clip-rule="evenodd" fill="#009944" stroke="#009944" stroke-width="0.1624" stroke-miterlimit="22.9256" width="3.3" height="0.3"/>
			
				<polygon fill-rule="evenodd" clip-rule="evenodd" fill="#009944" stroke="#009944" stroke-width="0.1627" stroke-miterlimit="22.9256" points="
				66.2,13.2 66.4,13.4 65.1,15.6 67.6,15.1 67.8,15.3 64.6,16 64.5,16 			"/>
			
				<polygon fill-rule="evenodd" clip-rule="evenodd" fill="#009944" stroke="#009944" stroke-width="0.1624" stroke-miterlimit="22.9256" points="
				68.5,16.1 69.5,17.7 69.2,17.9 68.4,16.5 67.5,17.1 68.3,18.4 68,18.5 67.2,17.2 66.1,17.9 66.9,19.2 66.6,19.4 65.7,17.8 			"/>
			
				<path fill-rule="evenodd" clip-rule="evenodd" fill="#009944" stroke="#009944" stroke-width="0.1624" stroke-miterlimit="22.9256" d="
				M70,18.9l0.2,0.6c0.1,0.3,0.2,0.5,0.2,0.6c0,0.2,0,0.4-0.1,0.5c-0.1,0.2-0.2,0.3-0.4,0.4C69.8,21,69.7,21,69.5,21
				c-0.1,0-0.3-0.1-0.4-0.2c-0.1-0.1-0.2-0.3-0.3-0.5l-0.9,1.6l-0.1-0.3l0.9-1.6l-0.1-0.2l-1.3,0.5l-0.1-0.3L70,18.9L70,18.9z
				 M69.8,19.3l-0.9,0.4l0.2,0.5c0.1,0.2,0.2,0.3,0.2,0.4c0.1,0.1,0.2,0.1,0.3,0.1c0.1,0,0.2,0,0.3,0c0.1,0,0.2-0.1,0.2-0.2
				c0.1-0.1,0.1-0.2,0.1-0.3c0-0.1,0-0.2-0.1-0.4L69.8,19.3z"/>
			
				<path fill-rule="evenodd" clip-rule="evenodd" fill="#009944" stroke="#009944" stroke-width="0.1624" stroke-miterlimit="22.9256" d="
				M68.5,22.3l0.2,0.2c-0.3,0.3-0.4,0.6-0.4,0.8c0,0.1,0.1,0.2,0.2,0.3c0.1,0.1,0.2,0.1,0.3,0.2c0.1,0,0.2,0,0.3,0
				c0.1,0,0.2-0.1,0.3-0.2c0.1-0.1,0.2-0.4,0.4-0.7c0.1-0.3,0.2-0.5,0.3-0.6c0.1-0.2,0.3-0.3,0.4-0.3c0.1,0,0.3,0,0.4,0
				c0.1,0,0.2,0.1,0.3,0.2c0.1,0.1,0.2,0.2,0.2,0.4c0,0.2,0,0.3,0,0.5c0,0.2-0.1,0.3-0.3,0.5l-0.3-0.2c0.1-0.2,0.2-0.3,0.2-0.4
				c0-0.1,0-0.2,0-0.3c0-0.1-0.1-0.2-0.2-0.3c-0.1-0.1-0.2-0.1-0.3,0c-0.1,0-0.1,0.1-0.2,0.1c-0.1,0-0.1,0.1-0.2,0.2
				c0,0.1-0.1,0.2-0.2,0.5c-0.1,0.3-0.3,0.6-0.4,0.7c-0.1,0.1-0.3,0.2-0.4,0.3c-0.2,0.1-0.5,0-0.7-0.1c-0.2-0.1-0.4-0.3-0.4-0.6
				c-0.1-0.2,0-0.4,0-0.6C68.2,22.7,68.3,22.5,68.5,22.3z"/>
			
				<rect x="69" y="25.3" transform="matrix(0.9971 -7.613225e-02 7.613225e-02 0.9971 -1.7337 5.4402)" fill-rule="evenodd" clip-rule="evenodd" fill="#009944" stroke="#009944" stroke-width="0.1624" stroke-miterlimit="22.9256" width="3" height="0.3"/>
			
				<polygon fill-rule="evenodd" clip-rule="evenodd" fill="#009944" stroke="#009944" stroke-width="0.1624" stroke-miterlimit="22.9256" points="
				71.7,26.7 72,26.7 72.1,28.5 71.8,28.5 71.7,27.8 68.8,27.9 68.8,27.5 71.7,27.5 			"/>
			
				<polygon fill-rule="evenodd" clip-rule="evenodd" fill="#009944" stroke="#009944" stroke-width="0.1624" stroke-miterlimit="22.9256" points="
				72.1,29.3 72.1,29.7 70.8,30.5 72.1,31.4 72.1,31.7 70.4,30.7 68.8,30.7 68.8,30.4 70.4,30.4 			"/>
		</g>
		<path fill-rule="evenodd" clip-rule="evenodd" fill="#009944" d="M54.4,40c-0.3,0.3-0.6,0.6-1,0.8c-0.4,0.3-0.7,0.5-1.1,0.7
			c0,0.2,0.1,0.5,0.1,0.7c0.1,0.3,0.2,0.5,0.3,0.8l0.7,1.6l0.1,0.3h-0.3h-8.8h-0.3l0.1-0.3l0.7-1.6c0.1-0.3,0.2-0.5,0.3-0.8
			c0.1-0.2,0.1-0.5,0.1-0.7c-0.4-0.2-0.8-0.4-1.1-0.7c-0.4-0.3-0.7-0.5-1-0.8c-0.6,0.3-1.3,0.6-1.9,0.8v0c-0.7,0.2-1.5,0.3-2.2,0.3
			c-2.3,0-4.5-0.9-6-2.5c-1.5-1.5-2.5-3.7-2.5-6c0-1.4,0.3-2.7,0.9-3.9c0.6-1.1,1.4-2.1,2.4-2.9c-0.3-0.5-0.5-1.1-0.6-1.6
			c-0.1-0.6-0.2-1.3-0.2-1.9c0-2.2,0.9-4.2,2.4-5.7c1.5-1.5,3.5-2.4,5.7-2.4c0.2,0,0.4,0,0.6,0c0.1,0,0.3,0,0.4,0
			c0.7-1.1,1.7-2,2.8-2.6c1.1-0.6,2.5-1,3.8-1c1.4,0,2.7,0.3,3.8,1c1.1,0.6,2.1,1.5,2.8,2.6c0.1,0,0.3,0,0.4,0c0.2,0,0.4,0,0.6,0
			c2.2,0,4.2,0.9,5.7,2.4c1.5,1.5,2.4,3.5,2.4,5.7c0,0.6-0.1,1.3-0.2,1.9c-0.1,0.6-0.3,1.1-0.6,1.6c1,0.8,1.8,1.8,2.4,2.9
			c0.6,1.2,0.9,2.5,0.9,3.8c0,2.3-0.9,4.5-2.5,6c-1.5,1.5-3.7,2.5-6,2.5c-0.8,0-1.5-0.1-2.2-0.3C55.6,40.6,55,40.3,54.4,40L54.4,40z
			 M53.1,40.5c0.4-0.3,0.7-0.6,1-0.9l0.1-0.1l0.1,0.1c0.6,0.4,1.3,0.6,2,0.8c0.7,0.2,1.4,0.3,2.1,0.3c2.2,0,4.2-0.9,5.7-2.4
			c1.5-1.5,2.4-3.5,2.4-5.7c0-1.3-0.3-2.5-0.9-3.6c-0.6-1.1-1.4-2.1-2.4-2.9L63.2,26l0.1-0.2c0.3-0.5,0.5-1.1,0.6-1.7
			c0.1-0.6,0.2-1.2,0.2-1.8c0-2.1-0.9-4-2.2-5.4c-1.4-1.4-3.3-2.2-5.4-2.2c-0.2,0-0.4,0-0.5,0c-0.2,0-0.4,0-0.5,0.1l-0.1,0l-0.1-0.1
			c-0.7-1.1-1.6-1.9-2.7-2.5c-1.1-0.6-2.3-0.9-3.6-0.9s-2.5,0.3-3.6,0.9c-1.1,0.6-2,1.5-2.7,2.5l-0.1,0.1l-0.1,0
			c-0.2,0-0.4,0-0.5-0.1c-0.2,0-0.4,0-0.5,0c-2.1,0-4,0.9-5.4,2.2c-1.4,1.4-2.2,3.3-2.2,5.4c0,0.6,0.1,1.2,0.2,1.8
			c0.1,0.6,0.4,1.2,0.6,1.7l0.1,0.2l-0.1,0.1c-1,0.8-1.9,1.7-2.4,2.9C31.3,30,31,31.3,31,32.6c0,2.2,0.9,4.2,2.4,5.7
			c1.5,1.5,3.5,2.4,5.7,2.4c0.7,0,1.4-0.1,2.1-0.3l0,0c0.7-0.2,1.4-0.5,2-0.8l0.1-0.1l0.1,0.1c0.3,0.3,0.7,0.6,1.1,0.9
			c0.4,0.3,0.8,0.5,1.2,0.7l0.1,0.1l0,0.1c0,0.3-0.1,0.6-0.2,0.9c-0.1,0.3-0.2,0.6-0.3,0.9l-0.6,1.3h8.2l-0.6-1.3
			c-0.1-0.3-0.2-0.6-0.3-0.9c-0.1-0.3-0.1-0.6-0.2-0.9l0-0.1l0.1-0.1C52.4,41,52.8,40.8,53.1,40.5z"/>
		<path fill-rule="evenodd" clip-rule="evenodd" fill="#009944" d="M41.2,15.6c0.6,0,1.2,0.1,1.7,0.2c1.1-2.2,3.3-3.7,5.9-3.7
			c2.6,0,4.9,1.5,5.9,3.7c0.5-0.1,1.1-0.2,1.7-0.2c3.7,0,6.7,3,6.7,6.7c0,1.5-0.5,2.9-1.3,4c2.3,1.2,3.8,3.6,3.8,6.3
			c0,3.9-3.2,7.1-7.1,7.1c-1.7,0-3.2-0.6-4.4-1.5c-0.8,1.1-2,2-3.3,2.4l0,0.1c0,1,0.2,2,0.6,2.9h-5.3c0.4-0.9,0.6-1.8,0.6-2.9l0-0.1
			c-1.3-0.4-2.5-1.3-3.3-2.4c-1.2,1-2.7,1.5-4.4,1.5c-3.9,0-7.1-3.2-7.1-7.1c0-2.8,1.6-5.1,3.8-6.3c-0.8-1.1-1.3-2.5-1.3-4
			C34.5,18.6,37.5,15.6,41.2,15.6z"/>
		<path fill-rule="evenodd" clip-rule="evenodd" fill="#FFFFFF" d="M38.9,18.1c0-0.3,0.2-0.5,0.5-0.5c0.3,0,0.5,0.2,0.5,0.5V22
			c0,0.3-0.2,0.5-0.5,0.5c-0.3,0-0.5-0.2-0.5-0.5V18.1L38.9,18.1z M58.2,36.4c0,0.3-0.2,0.5-0.5,0.5c-0.3,0-0.5-0.2-0.5-0.5l0-9.7
			c0,0,0,0,0-0.1l0,0l0,0c0,0,0-0.1,0-0.1c0-0.6-0.2-1.1-0.6-1.5c-0.3-0.3-0.6-0.5-1-0.6v12c0,0.3-0.2,0.5-0.5,0.5
			c-0.3,0-0.5-0.2-0.5-0.5V24.1c0,0,0-0.1,0-0.1c0,0,0-0.1,0-0.1V22c-0.4,0.1-0.8,0.3-1,0.6C53.2,22.9,53,23.4,53,24c0,0,0,0,0,0.1
			l0,0l0,0c0,0,0,0.1,0,0.1l0,12.3c0,0.3-0.2,0.5-0.5,0.5S52,36.7,52,36.4L52,24c0,0,0-0.1,0-0.1c0-0.8,0.4-1.5,0.9-2
			c0.5-0.5,1-0.8,1.7-0.9v-2.4c-0.4,0-0.7,0.1-1,0.2c-0.5,0.1-0.9,0.3-1.4,0.6c-0.2,0.1-0.5,0.1-0.6-0.2c-0.1-0.2-0.1-0.5,0.2-0.6
			c0.5-0.3,1-0.5,1.6-0.7c0.6-0.2,1.2-0.2,1.8-0.2h0h0c0.6,0,1.2,0.1,1.8,0.2c0.6,0.2,1.1,0.4,1.6,0.7c0.2,0.1,0.3,0.4,0.2,0.6
			c-0.1,0.2-0.4,0.3-0.6,0.2c-0.4-0.2-0.9-0.4-1.4-0.6c-0.3-0.1-0.7-0.1-1-0.2v2.9v2.1c0.7,0.1,1.2,0.4,1.7,0.9
			c0.5,0.5,0.9,1.2,0.9,2c0,0,0,0.1,0,0.1L58.2,36.4L58.2,36.4z M46.8,17.7c0-0.3,0.2-0.5,0.5-0.5s0.5,0.2,0.5,0.5l0,0.5
			c0.4,0,0.9,0.1,1.3,0.3c0.6,0.2,1.1,0.5,1.6,0.8c0.2,0.2,0.3,0.5,0.1,0.7c-0.2,0.2-0.5,0.3-0.7,0.1c-0.4-0.3-0.9-0.5-1.3-0.7
			c-0.5-0.2-1-0.2-1.5-0.2c-0.5,0-1,0.1-1.5,0.2c-0.5,0.2-0.9,0.4-1.3,0.7c-0.2,0.2-0.5,0.1-0.7-0.1c-0.2-0.2-0.1-0.5,0.1-0.7
			c0.5-0.4,1-0.6,1.6-0.8c0.4-0.1,0.9-0.2,1.3-0.3L46.8,17.7L46.8,17.7z M41.5,27.3c0-0.3,0.2-0.5,0.5-0.5c0.3,0,0.5,0.2,0.5,0.5
			v9.2c0,0.2-0.2,0.5-0.5,0.5c-0.3,0-0.5-0.2-0.5-0.5V27.3L41.5,27.3z M47.7,33.2c0,0.3-0.2,0.5-0.5,0.5c-0.3,0-0.5-0.2-0.5-0.5
			v-3.3c0-0.3,0.2-0.5,0.5-0.5h2.6c0.3,0,0.5,0.2,0.5,0.5v6.6c0,0.3-0.2,0.5-0.5,0.5h-5.2c-0.3,0-0.5-0.2-0.5-0.5c0,0,0,0,0,0V24h0
			c0-0.9,0.3-1.6,0.9-2.2c0.6-0.6,1.3-0.9,2.2-0.9c0.8,0,1.5,0.3,2.1,0.8c0.6,0.5,0.9,1.2,1,2c0,0,0,0.1,0,0.1l0,3.4
			c0,0.3-0.2,0.5-0.5,0.5v0h-2.6c-0.3,0-0.5-0.2-0.5-0.5V24c0-0.3,0.2-0.5,0.5-0.5c0.3,0,0.5,0.2,0.5,0.5v2.8h1.7l0-3
			c0-0.6-0.3-1-0.7-1.4c-0.4-0.4-0.9-0.6-1.5-0.6c-0.6,0-1.1,0.2-1.5,0.6c-0.4,0.4-0.6,0.9-0.6,1.5h0v12h4.3v-5.6h-1.6V33.2
			L47.7,33.2z M41.5,18.1l0,5.4c-0.6,0.1-1.1,0.4-1.6,0.8c-0.6,0.5-1,1.3-1,1.9h0l0,10.2c0,0.3,0.2,0.5,0.5,0.5
			c0.3,0,0.5-0.2,0.5-0.5l0-10.2h0c0-0.4,0.3-0.8,0.7-1.2c0.4-0.4,0.9-0.6,1.4-0.6v0c0.3,0,0.5-0.2,0.5-0.5l0-5.9
			c0-0.3-0.2-0.5-0.5-0.5C41.7,17.6,41.5,17.8,41.5,18.1z"/>
		<g>
			<path fill-rule="evenodd" clip-rule="evenodd" fill="#009944" d="M38.2,48c0-0.1,0.1-0.1,0.2-0.1C38.3,48,38.4,48,38.2,48
				L38.2,48z M39.9,47.6l0.1-0.1l0.1-0.1l0.2,0.1l0.3,0.1c0.1,0.1,0.2,0.1,0.3,0.3c0,0.3,0,0.1-0.1,0.2c0,0,0,0,0,0
				c-0.1,0.2,0-0.1,0,0.1l-0.2,0.1l-0.2,0.1l-0.2,0.1l0,0l-0.3,0.2l-0.2,0.1c-0.1,0-0.4,0.1-0.5,0.2L39,49c0.1-0.3,0.1-0.3,0.2-0.6
				L39,48.3c-0.2-0.1-0.2-0.1-0.3-0.2l0.2-0.2l0.1,0l0.2,0.1l0.1,0c0.1-0.2,0-0.3,0-0.5l0.5,0.1C39.9,47.6,39.8,47.6,39.9,47.6
				L39.9,47.6z M38.8,47.2c-0.1-0.1,0,0-0.1-0.2c0-0.2,0-0.1,0-0.2c0.2,0,0.1,0,0.2,0l0.2,0.2C39,47.2,39,47.1,38.8,47.2L38.8,47.2z
				 M39.6,45.5c-0.2-0.1-0.1-0.1-0.4-0.1c-0.2,0.5,0,0.6,0,0.9c-0.6,0.1-1.4-0.6-1.8,0.3l-0.2,0.1c-0.3,0.3-0.5,0.4-0.5,0.6l0,0.1
				c0,0.2,0,0.1,0,0.1c0.1,0.1,0-0.1,0.1,0.2c0.1,0.2,0.1,0,0.1,0.2h0.2l0.2-0.1c0.1,0,0.1,0,0.1-0.1c0.1-0.1,0-0.1,0.2-0.1l0.1-0.1
				c0.1-0.1,0.1-0.1,0.1-0.2c0.1-0.1,0-0.1,0.1-0.3L38,47c0,0,0-0.1,0,0c0,0,0,0,0,0c0.2-0.5,0.2-0.3,0.4-0.3c0,0.5-0.2,0.9-0.1,1
				l0.1,0.2l-0.1,0c-0.3,0-0.3,0-0.5,0.1l-0.3,0.3c0.1,0.2,0.1,0.3,0.3,0.3c0.2,0,0.1,0,0.1,0.1l-0.1,0.1c-0.1,0.2-0.3,0.5,0.2,0.4
				c0.4-0.1,0.2-0.3,0.5-0.3l0.1,0.2c-0.1,0.5-0.2,0.7,0,1.1c0.4-0.2,0.1-0.2,1-0.6c0.1-0.1,0.3-0.1,0.4-0.2l1.2-1
				c-0.1-0.3-0.2-0.5-0.4-0.6l-0.2-0.1c0-0.1,0.1-0.1-0.1-0.1l-0.2-0.1L40.2,47c-0.1-0.2-0.1-0.1-0.3-0.2c0,0-0.2,0.1-0.1-0.2l0-0.1
				c0.1-0.1-0.2-0.1,0.2,0c0.1,0,0.1,0.1,0.1,0.1c0.2,0.1,0.3,0.1,0.4-0.1c0.1-0.1,0.1-0.1,0.1-0.4c0-0.2,0.1-0.1-0.1-0.1L40.4,46
				c0.1-0.3,0.2-0.2,0.1-0.4c0-0.1-0.2-0.4-0.2-0.4l-0.5,0.3C39.6,45.6,39.7,45.5,39.6,45.5z"/>
			<path fill-rule="evenodd" clip-rule="evenodd" fill="#009944" d="M57.9,45.4l0.3,0.3c0,0.1,0,0.6,0,0.8c0.2,0.5,0.3,0.4-0.3,0.8
				c-0.7,0.5-0.5,0.1-1,0.3c0,0.3,0,0.1,0.1,0.3c0.1,0.2,0.1,0.1,0.1,0.3c0.2,0,0.2,0,0.3,0c0,0,0.1,0,0.1,0c0.1,0,0.1,0,0.2-0.1
				c0.2-0.1,0.1,0,0.2-0.1c0,0,0,0,0,0l0.2-0.2c0.1-0.1-0.2-0.1,0.2-0.1l0.1,0.1c-0.1,0.2,0,0.4,0,0.7c0,0.2,0,0.2-0.1,0.3
				c-0.1,0.3-0.1-0.1-0.1,0.3c-0.1,0.1,0.1,0.1-0.2,0.1l0,0.1c-0.1,0.2,0,0.1,0.1,0.3l0.5,0c0.5-0.2,0.4-0.7,0.6-1.4
				c0.3,0,0.3-0.1,0.6,0c0.4,0,0.3,0.2,0.6,0.2c0.3,0.1,1-0.2,0.6-0.6c-0.3-0.1-0.1,0-0.1-0.1c-0.1-0.3-0.8-0.2-1,0l-0.3,0.1
				c-0.4,0-0.4,0.2-0.5-0.3c0-0.2,0-0.3,0-0.4c0.1-0.3,0.1-0.1,0.2-0.3l0.2-0.1l0.2-0.2l0.1-0.2c0.2-0.3,0.3-0.3,0.2-0.7
				c-0.6-0.2-0.3,0-0.7,0c0,0.3,0.1,0.1,0.1,0.3c0,0.2,0,0-0.1,0.3l-0.2,0.2c-0.2,0.2-0.1,0.1-0.3,0.2l-0.1-0.3c0-0.2,0.1-0.2,0-0.4
				c-0.1-0.1,0,0.1-0.1-0.2c0,0,0-0.1,0-0.2c0-0.2,0-0.2-0.1-0.3c-0.2-0.1-0.6-0.1-0.8,0c-0.1,0-0.1,0,0,0.1
				C57.9,45.6,57.8,45.4,57.9,45.4z"/>
			<path fill-rule="evenodd" clip-rule="evenodd" fill="#009944" d="M53.3,49.6l-0.3,0c0.1-0.2,0,0,0.2-0.2c0.1-0.1-0.2-0.2,0.2-0.1
				C53.4,49.6,53.4,49.5,53.3,49.6L53.3,49.6z M52.4,46.6l-0.1-0.1c0,0,0.1-0.1-0.2,0c-0.2,0.1-0.1,0-0.1,0.2c0,0.3,0.2,1,0.3,1.4
				c-0.2,0-0.1-0.1-0.2,0.1l0.1,0.1l-0.2,0.1c-0.1,0,0-0.1-0.1,0c-0.1,0.1,0,0-0.1,0.1c-0.1,0,0,0-0.1,0l-0.3,0.1
				c-0.4-0.2,0.1-0.1-0.2-0.1c-0.1,0-0.1-0.1-0.1,0.1c-0.1,0.1-0.1,0-0.1,0.2c0,0.2,0,0.1,0.1,0.3c0.1,0.1,0,0,0.2,0.1
				c0.1,0,0.1,0,0.2,0l0.2-0.1c0.3,0,0.5-0.2,0.6-0.2c0.4-0.2,0,0.1,0.3-0.1c0.1-0.1,0.1-0.1,0.3-0.3l0.2,0l-0.2,0.1c0,0,0,0,0,0
				c0,0,0,0,0,0l-0.5,0.3c-0.3,0.2-0.6,0.5-0.5,1l0.1,0.2c-0.2,0.5-1,1.1,0,1.2c0.5-0.8,0.5-0.9,0.7-1.6l0.1-0.1l0.1,0.2
				c0,0.2-0.1,0.3-0.1,0.5c0,0.1,0.1,0.4,0.1,0.4c0.3,0.7,2.2,0.1,2.4,0l0.1-0.1c0.1-0.1,0.1-0.1,0.1-0.3c0-0.2-0.1-0.1-0.2-0.2
				l-0.1-0.2c0.1-0.2,0.1-0.2,0-0.3c-0.3,0-0.1,0-0.2,0.9c-1,0.4-1.6,0.6-1.9-0.3c0.1-0.2,0.1-0.2,0.3-0.3c0.3,0,0.1,0,0.3,0.1
				c0.1,0.1,0.1,0,0.3,0c-0.1-0.5-0.1-0.1-0.3-0.4c0-0.1-0.1-0.2,0-0.3c0,0,0.1-0.1,0.1-0.1l0.1-0.1c0,0,0,0,0,0c0-0.2,0-0.1,0-0.2
				l-0.2,0c-0.2,0.1-0.2,0-0.3,0.2c-0.1,0,0,0-0.2,0c-0.1,0-0.1,0.1-0.2,0.1c-0.1,0.1-0.1,0.2-0.3,0.3l-0.1,0
				c-0.3,0-0.4-0.3-0.2-0.5c0.1-0.1,0.1,0,0.2-0.1l0.1-0.1c0.4-0.3,0.7-0.4,0.9-0.7c0.1-0.2,0-0.1,0.1-0.1c0.1,0,0.1,0.1,0-0.1
				l0.2-0.2c0.1-0.1,0.3-0.2,0.4-0.3c0.1-0.1,0.1-0.1,0.2-0.2c0,0,0,0-0.1,0c-0.4-0.2-0.2,0-0.4-0.3c0-0.2,0.1-0.1,0-0.2l-0.2-0.2
				c-0.4-0.3-0.2,0.3-0.4,1c-0.1,0.2-0.2,0.4-0.3,0.5c-0.2,0.2-0.2,0.2-0.5,0.2C52.7,47.8,52.7,46.9,52.4,46.6z"/>
			<path fill-rule="evenodd" clip-rule="evenodd" fill="#009944" d="M47.4,49.4l-0.2,0.2c-0.2,0.1-0.1,0.1-0.4,0
				c0-0.3,0-0.7,0.4-0.7C47.5,49,47.4,49.2,47.4,49.4L47.4,49.4z M44.6,47.7l-0.3,0l0,0.2c0,0.1,0,0.6-0.2,0.6
				c-0.2,0,0.1-0.3-0.1-0.6c-0.6-0.3-0.4,0.2-0.4,0.5c0,0.5-0.2,0.5-0.4,0.8l0,0.3c0,0.3,0,0.4,0.2,0.4c0.5,0.1,0.3-0.4,0.5-0.9
				c0.1-0.2,0-0.2,0.4-0.3c0,0.6-0.1,0.3-0.1,0.6c-0.1,0.3,0,0.4,0.1,0.6h0.3c0.1-0.2,0.1-0.3,0.2-0.5l0.2-0.2c0.1,0,0.1,0,0-0.1
				l0.2-0.2c0.2-0.1,0.1-0.2,0.2-0.4c-0.4,0-0.2,0.1-0.4,0.1c-0.5,0.2,0-0.6-0.1-0.8l-0.2-0.2c0-0.2,0,0-0.1-0.1L44.6,47.7
				L44.6,47.7z M46.1,49c-0.1,0.1,0.1,0.1-0.1,0.1c0-0.1,0,0,0-0.2c0-0.1,0-0.1,0.1-0.1C46.2,48.8,46.3,48.8,46.1,49L46.1,49z
				 M45.7,47.6l0.2,0.2l0.2,0c0.1,0,0.2,0,0.3,0c-0.1,0.1-0.1,0.1-0.2,0.2l-0.4,0c0,0.2,0,0.4-0.1,0.6c-0.2,0.2,0,0.1-0.2,0.2
				c0,0.1-0.1,0.2-0.1,0.2c-0.1,0.2-0.1,0.4-0.1,0.7c0.1,0,0.1,0.1,0.2,0.1c0.3,0.1,0.2,0,0.5,0L46,50.2c-0.1,0.2-0.1,1.3-0.1,1.6
				c0.3,0,0.1,0.1,0.2-0.1c0.1-0.2,0-0.1,0.1-0.2c0,0,0,0,0,0c0,0,0,0,0,0l0.2-0.6c0.2-0.6,0.2-0.4,0.1-0.7c0.2,0.1,0,0.2,0.6,0.2
				c0.1-0.1,0.2-0.1,0.2-0.2c0.2-0.2,0.5-0.8,0.5-1.1c0-0.3,0-0.1-0.1-0.2l-0.2-0.2l-0.2,0l-0.7,0.1l0-0.4c0-0.2,0.2-0.4,0.3-0.4
				l0.2-0.2c-0.1-0.3,0-0.1-0.2-0.3c-0.1-0.1,0-0.1-0.1-0.2c0,0-0.1-0.1-0.1-0.1c-0.3,0-0.5,0.1-0.7,0c0,0-0.7-0.7-0.7,0.1
				c0,0.1,0,0.1,0,0.1C45.7,47.5,45.7,47.5,45.7,47.6z"/>
			<path fill-rule="evenodd" clip-rule="evenodd" fill="#009944" d="M63.1,44.7L63,44.9l0,0.3l0.3,0.1c0.1,0.1,0.1,0.1,0.2,0.1
				c0.3,0,0.2,0,0.2,0l0.1-0.1c0.1,0,0,0,0.1-0.1c0-0.3,0-0.1,0-0.2l-0.1-0.2c0-0.3-0.3-0.5,0.1-1.4l0.8-1l0.3,0
				c0.1,0.2,0.1,0.3,0,0.5c-0.1,0.1-0.2,0.3-0.2,0.4l-0.1,0.2c-0.3,0.2-0.3,0.3-0.3,0.7c0.2,0.1,0.1,0.2,0.4,0.3
				c0.3-0.2,0.1-0.2,0.4-0.4l0.2,0.2c-0.2,0.6-0.4,0.6-0.5,0.9c-0.2,0.1-0.3,0.2-0.2,0.6c0.1,0,0.1,0,0.2,0.1c0.3-0.4,0-0.2,0.4-0.4
				l0-0.2l0.1-0.2l0.2-0.2l0.1-0.1c0.1-0.1,0-0.1,0.2-0.1c0.1,0.1,0.2,0.1,0.2,0.2c0,0.1-0.2,0.5-0.3,0.6c-0.3,0.2-0.2-0.1-0.2,0.2
				c-0.2,0.1-0.2,0.2-0.3,0.3c0,0.3,0,0,0.1,0.1c0.2,0,0.3-0.1,0.5-0.1l0.1-0.1l0.3-0.2l0.3-0.2l0.2-0.5c0.1-0.3,0-0.2,0-0.2
				l-0.2-0.2c0,0-0.1-0.1-0.1-0.1c-0.1-0.1,0,0-0.1-0.1c-0.1-0.3,0.4-0.5,0.2-0.8c0-0.1,0-0.1-0.1-0.1c-0.3-0.1-0.1,0-0.1,0
				l-0.4,0.3c-0.1,0.1,0-0.1-0.1,0.1c-0.1,0.2,0,0.1-0.1,0.2l-0.2,0.1l-0.1-0.2c0.1-0.2,0-0.1,0-0.1C65,43.3,65,43.1,65.1,43
				l0.1-0.2c0,0,0.1-0.2,0.1-0.2c0-0.1,0-0.4-0.1-0.5c-0.8,0-0.8-0.1-1.3,0.6c-0.9,1.3-0.3,0.3-0.8,1.7C63,44.5,63,44.5,63.1,44.7
				L63.1,44.7z M62.3,43.7C62,43.8,62,43.8,62,43.3c0.3-0.1,0,0.1,0.5-0.2l0-0.7c0.1-0.1,0.2-0.1,0.3-0.2c0.4-0.2,0.3,0.1,0.5-0.3
				c0-0.1,0.1-0.2,0.1-0.3c0.1-0.3,0.5-0.7,0.9-0.5c0.1,0.3-0.2,0.5-0.3,0.8c0,0.2-0.1,0.3-0.1,0.5c-0.2,0.4-0.2,0.3-0.3,0.3
				c-0.1-0.2-0.1-0.2,0-0.4l0.1-0.1l0-0.1c-0.1-0.3-0.2-0.1-0.2-0.1c0,0.1,0,0.1-0.1,0.1c-0.1,0.2,0,0-0.1,0.2l-0.1,0.1L63,42.7
				l-0.2-0.1l-0.1,0.2l0,0.4l0.2,0.1c0.1,0.1,0.1,0.1,0.1,0.2c0,0.1,0,0.1-0.1,0.2c-0.1,0.1-0.2,0.2-0.3,0.3c-0.3,0-0.1,0-0.2-0.1
				C62.5,43.9,62.4,43.8,62.3,43.7z"/>
			<path fill-rule="evenodd" clip-rule="evenodd" fill="#009944" d="M31.1,43.2c0,0.3,0,0.9,0.4,0.9c0.4,0,0.2-0.3,0.4-0.6
				c0.1-0.1,0.1,0,0.1-0.2l-0.3-0.1c-0.2-0.1-0.1-0.1-0.2-0.2c-0.1-0.1,0.1-0.1-0.1-0.1C31.2,43,31.1,43.1,31.1,43.2L31.1,43.2z
				 M31.6,42.6L31.6,42.6c0.1,0.1,0.1,0.1,0.1,0.1l0.1,0c0.2,0,0.3,0.1,0.5,0c0.2-0.1,0.1-0.3,0.1-0.5l-0.1-0.1c0-0.1,0-0.2-0.2-0.1
				c-0.1,0-0.1,0.1-0.2,0.2l-0.2,0.2C31.5,42.6,31.7,42.4,31.6,42.6L31.6,42.6z M33.3,42.3l0.3-0.3c-0.1-0.3-0.1-0.4-0.2-0.5
				l-0.2-0.2c-0.4-0.2-0.3,0.2-0.3,0.5C33,42.2,33.1,42.2,33.3,42.3L33.3,42.3z M33.7,45.2c0.1,0,0.1,0,0.1,0.1l-0.1,0.1
				c-0.3,0-0.1,0-0.3,0.1c-0.3,0.1,0-0.1-0.3,0l-0.1-0.2l-0.3-0.1c-0.2-0.1-0.2-0.2-0.3-0.3c0.3-0.2,0.4-0.1,0.6-0.1c0,0,0,0,0,0
				c0.4,0.2,0,0.1,0.7,0.3L33.7,45.2C33.6,45.2,33.6,45.2,33.7,45.2C33.6,45.2,33.7,45.2,33.7,45.2L33.7,45.2z M34.1,44.9
				c0-0.2-0.1-0.1,0-0.2l0.2,0c0-0.3-0.1-0.3-0.3-0.3l-0.1,0c-0.2-0.1-0.4,0.1-0.5,0.3c0.1,0.1,0.2,0.1,0.3,0.1l0.3,0.1L34.1,44.9
				L34.1,44.9z M34.5,44.2c0,0.1,0,0,0,0.1c0,0.2,0,0,0,0.1c-0.2,0-0.1,0-0.2-0.1C34.4,44.2,34.3,44.2,34.5,44.2L34.5,44.2z
				 M33.5,44.1l0.1,0.1l-0.1,0.1c-0.3,0-0.3,0.2-0.5,0.2c-0.2,0-0.4-0.1-0.5-0.2C32.9,43.9,33.1,44.1,33.5,44.1L33.5,44.1z
				 M33.7,43.8c0.1-0.1,0.1,0,0.3-0.1c0,0.2,0,0.2-0.1,0.3C33.6,43.9,33.8,43.9,33.7,43.8L33.7,43.8z M34.2,42.8
				c-0.1-0.1-0.1,0-0.2-0.2c-0.1-0.3,0.1-0.4,0.3-0.5c0.2-0.1,0.3-0.2,0.4-0.2c0.3-0.1,0.3-0.1,0.4-0.3c0.5,0,0.5,0.1,0.5,0.6
				c-0.4,0.2-0.7,0.2-1.1,0.4l-0.1,0.1c0.1,0.1,0.1,0.1,0.2,0.2l0.1,0c0,0,0,0,0,0c0.3,0.1,0.4,0.1,0.5,0.5
				c-0.3,0.2-0.4,0.1-0.7,0.2c0.6,1,0.2,0.6,0.4,1c0.1,0.3,0.5,0.1,0.5,0.4c0,0.5-0.6,0-0.8,0c-0.2,0.4,0,0.4-0.3,0.5
				c-0.4,0.1-0.2,0.1-0.5,0.2c-0.1,0-0.1,0-0.1,0.1c0,0,0,0,0,0c0,0,0,0,0,0c-0.1,0-0.6,0.1-0.8,0c-0.6-0.1-0.8-0.5-0.9-0.7
				c-0.2-0.2-0.2-0.1-0.2-0.3c-0.1-0.3,0.2-0.5,0.4-0.1c0.3,0,0.1,0,0.3-0.1c-0.1-0.1-0.8-0.5-0.1-0.8c0.1,0,0,0,0.1,0
				c0.1-0.1,0.2-0.1,0.3-0.2c0.1-0.3,0,0-0.1-0.1c-0.2-0.1-0.2-0.2-0.4-0.5c0.1-0.1,0.2-0.1,0.3-0.2c0.1,0.1,0.1,0.2,0.2,0.3
				l0.2,0.2c0.1,0.2-0.1,0.1,0.2,0.1c0.5,0,0.5-0.1,0.8-0.1c0.3-0.1,0.4-0.1,0.6-0.3L34.2,42.8z"/>
		</g>
	</g>
</g>
</svg>
